<?xml version="1.0" standalone="no"?>
<!DOCTYPE svg PUBLIC "-//W3C//DTD SVG 20010904//EN"
 "http://www.w3.org/TR/2001/REC-SVG-20010904/DTD/svg10.dtd">
<svg version="1.0" xmlns="http://www.w3.org/2000/svg"
 width="700.000000pt" height="700.000000pt" viewBox="0 0 700.000000 700.000000"
 preserveAspectRatio="xMidYMid meet">
<metadata>
Created by potrace 1.11, written by Peter Selinger 2001-2013
</metadata>
<g transform="translate(0.000000,700.000000) scale(0.100000,-0.100000)"
fill="#000000" stroke="none">
<path d="M2682 6826 c-83 -27 -131 -71 -132 -120 0 -37 61 -99 115 -117 31
-10 205 -14 780 -19 717 -5 741 -6 774 -25 19 -11 48 -37 64 -58 26 -31 32
-49 35 -102 4 -55 0 -73 -26 -129 -32 -68 -89 -133 -144 -163 -31 -17 -89 -18
-913 -23 -834 -5 -882 -6 -915 -24 -81 -43 -121 -107 -100 -162 18 -46 69 -92
124 -111 48 -17 126 -18 1196 -18 1250 0 1188 -3 1258 59 42 37 76 108 68 142
-4 13 -49 66 -101 117 -110 109 -143 168 -157 286 -26 222 -45 276 -123 360
-82 88 -106 93 -430 102 -154 4 -516 10 -805 13 -431 4 -533 3 -568 -8z"/>
<path d="M562 6267 l-82 -82 410 -410 410 -410 0 165 0 165 -328 328 -327 327
-83 -83z"/>
<path d="M6027 6022 l-328 -328 3 -162 3 -162 408 408 407 407 -83 83 -82 82
-328 -328z"/>
<path d="M1353 4898 c4 -1096 3 -1077 62 -1403 173 -953 665 -1708 1504 -2309
137 -98 394 -263 524 -336 l57 -32 58 32 c128 73 395 244 524 337 842 606
1329 1353 1503 2308 59 325 58 306 62 1403 l4 1012 -370 0 -369 0 -7 -32 c-10
-44 -86 -122 -148 -149 l-52 -24 -1175 0 -1175 0 -53 24 c-63 28 -129 99 -138
147 l-6 34 -405 0 -404 0 4 -1012z m1797 117 l0 -215 -70 0 -70 0 0 -390 0
-390 490 0 490 0 0 390 0 390 -70 0 -70 0 0 215 0 215 360 0 360 0 0 -215 0
-215 -70 0 -70 0 0 -1000 0 -1000 70 0 70 0 0 -215 0 -215 -360 0 -360 0 2
213 3 212 68 3 67 3 0 384 0 385 -490 0 -490 0 0 -385 0 -384 68 -3 67 -3 3
-212 2 -213 -360 0 -360 0 0 215 0 215 70 0 70 0 0 1000 0 1000 -70 0 -70 0 0
215 0 215 360 0 360 0 0 -215z"/>
<path d="M1697 1692 l-307 -307 83 -83 82 -82 299 299 298 298 -67 84 c-37 46
-70 87 -74 91 -4 4 -145 -131 -314 -300z"/>
<path d="M4921 1908 l-73 -91 299 -299 298 -298 83 83 82 82 -308 308 -307
307 -74 -92z"/>
<path d="M416 1475 c-59 -58 -106 -111 -103 -117 3 -7 83 -101 178 -208 221
-249 552 -580 789 -790 102 -90 195 -173 208 -184 l23 -20 109 109 c61 60 110
113 110 118 0 10 -84 114 -245 302 -145 170 -391 423 -540 554 -170 151 -399
341 -410 341 -5 0 -59 -48 -119 -105z"/>
<path d="M731 1546 l-32 -33 94 -82 c52 -44 99 -81 104 -81 5 0 20 11 33 25
l24 26 -89 89 c-49 50 -92 90 -95 90 -3 0 -21 -15 -39 -34z"/>
<path d="M6135 1490 l-89 -89 24 -26 c13 -14 28 -25 33 -25 5 0 52 37 104 81
l94 82 -32 33 c-18 19 -36 34 -39 34 -3 0 -46 -40 -95 -90z"/>
<path d="M6310 1458 c-395 -331 -626 -562 -932 -935 -60 -72 -108 -135 -108
-140 0 -4 49 -58 110 -118 l109 -109 23 20 c13 11 106 94 208 184 241 214 551
524 779 780 101 113 185 211 188 217 5 13 -204 222 -222 223 -5 0 -75 -55
-155 -122z"/>
<path d="M1215 1270 l-110 -110 100 -100 100 -100 110 110 110 110 -100 100
-100 100 -110 -110z"/>
<path d="M5575 1280 l-100 -100 110 -110 110 -110 100 100 100 100 -110 110
-110 110 -100 -100z"/>
<path d="M1518 773 l-26 -26 85 -99 86 -99 36 35 36 36 -90 90 c-49 49 -92 90
-95 90 -3 0 -17 -12 -32 -27z"/>
<path d="M5355 710 l-90 -90 36 -36 36 -35 86 99 86 99 -28 27 c-15 14 -29 26
-32 26 -2 0 -45 -41 -94 -90z"/>
</g>
</svg>
